<svg width="120" height="107" viewBox="0 0 120 107" fill="none" xmlns="http://www.w3.org/2000/svg">
<g clip-path="url(#clip0_4_2)">
<line x1="82.8561" y1="66.3325" x2="68.8515" y2="51.8707" stroke="#EF5350" stroke-width="4"/>
<line x1="68.8358" y1="50.078" x2="25.5632" y2="5.3913" stroke="#2BC48A" stroke-width="4"/>
<line x1="81" y1="66" x2="123" y2="66" stroke="#EF5350" stroke-width="4"/>
<line x1="68" y1="45" x2="68" y2="60" stroke="white" stroke-width="4"/>
<path d="M20 52L120 52" stroke="white" stroke-width="4"/>
<line x1="17.591" y1="103.98" x2="17.591" y2="3.98018" stroke="white" stroke-width="4"/>
<path d="M9.47727 13.0909V2.18182H10.1761V13.0909H9.47727ZM11.8295 5.45455C11.7784 5.02273 11.571 4.6875 11.2074 4.44886C10.8438 4.21023 10.3977 4.09091 9.86932 4.09091C9.48295 4.09091 9.14489 4.15341 8.85511 4.27841C8.56818 4.40341 8.34375 4.57528 8.18182 4.79403C8.02273 5.01278 7.94318 5.26136 7.94318 5.53977C7.94318 5.77273 7.99858 5.97301 8.10938 6.14062C8.22301 6.3054 8.3679 6.44318 8.54403 6.55398C8.72017 6.66193 8.90483 6.75142 9.09801 6.82244C9.29119 6.89062 9.46875 6.94602 9.63068 6.98864L10.517 7.22727C10.7443 7.28693 10.9972 7.36932 11.2756 7.47443C11.5568 7.57955 11.8253 7.72301 12.081 7.90483C12.3395 8.08381 12.5526 8.31392 12.7202 8.59517C12.8878 8.87642 12.9716 9.22159 12.9716 9.63068C12.9716 10.1023 12.848 10.5284 12.6009 10.9091C12.3565 11.2898 11.9986 11.5923 11.527 11.8168C11.0582 12.0412 10.4886 12.1534 9.81818 12.1534C9.19318 12.1534 8.65199 12.0526 8.1946 11.8509C7.74006 11.6491 7.3821 11.3679 7.12074 11.0071C6.86222 10.6463 6.71591 10.2273 6.68182 9.75H7.77273C7.80114 10.0795 7.91193 10.3523 8.10511 10.5682C8.30114 10.7812 8.5483 10.9403 8.84659 11.0455C9.14773 11.1477 9.47159 11.1989 9.81818 11.1989C10.2216 11.1989 10.5838 11.1335 10.9048 11.0028C11.2259 10.8693 11.4801 10.6847 11.6676 10.4489C11.8551 10.2102 11.9489 9.93182 11.9489 9.61364C11.9489 9.32386 11.8679 9.08807 11.706 8.90625C11.544 8.72443 11.331 8.5767 11.0668 8.46307C10.8026 8.34943 10.517 8.25 10.2102 8.16477L9.13636 7.85795C8.45455 7.66193 7.91477 7.3821 7.51705 7.01847C7.11932 6.65483 6.92045 6.17898 6.92045 5.59091C6.92045 5.10227 7.05256 4.67614 7.31676 4.3125C7.58381 3.94602 7.94176 3.66193 8.39062 3.46023C8.84233 3.25568 9.34659 3.15341 9.90341 3.15341C10.4659 3.15341 10.9659 3.25426 11.4034 3.45597C11.8409 3.65483 12.1875 3.92756 12.4432 4.27415C12.7017 4.62074 12.8381 5.0142 12.8523 5.45455H11.8295Z" fill="white"/>
<path d="M9.75 56.1193C9.10795 56.1193 8.56108 55.9446 8.10938 55.5952C7.65767 55.2429 7.3125 54.733 7.07386 54.0653C6.83523 53.3949 6.71591 52.5852 6.71591 51.6364C6.71591 50.6932 6.83523 49.8878 7.07386 49.2202C7.31534 48.5497 7.66193 48.0384 8.11364 47.6861C8.56818 47.331 9.11364 47.1534 9.75 47.1534C10.3864 47.1534 10.9304 47.331 11.3821 47.6861C11.8366 48.0384 12.1832 48.5497 12.4219 49.2202C12.6634 49.8878 12.7841 50.6932 12.7841 51.6364C12.7841 52.5852 12.6648 53.3949 12.4261 54.0653C12.1875 54.733 11.8423 55.2429 11.3906 55.5952C10.9389 55.9446 10.392 56.1193 9.75 56.1193ZM9.75 55.1818C10.3864 55.1818 10.8807 54.875 11.233 54.2614C11.5852 53.6477 11.7614 52.7727 11.7614 51.6364C11.7614 50.8807 11.6804 50.2372 11.5185 49.706C11.3594 49.1747 11.1293 48.7699 10.8281 48.4915C10.5298 48.2131 10.1705 48.0739 9.75 48.0739C9.11932 48.0739 8.62642 48.3849 8.27131 49.0071C7.91619 49.6264 7.73864 50.5028 7.73864 51.6364C7.73864 52.392 7.81818 53.0341 7.97727 53.5625C8.13636 54.0909 8.36506 54.4929 8.66335 54.7685C8.96449 55.044 9.3267 55.1818 9.75 55.1818Z" fill="white"/>
<path d="M4.67045 99.1676V100.105H0.852273V99.1676H4.67045ZM8.9968 105.091V94.1818H9.69567V105.091H8.9968ZM11.3491 97.4545C11.2979 97.0227 11.0906 96.6875 10.7269 96.4489C10.3633 96.2102 9.91726 96.0909 9.38885 96.0909C9.00249 96.0909 8.66442 96.1534 8.37464 96.2784C8.08771 96.4034 7.86328 96.5753 7.70135 96.794C7.54226 97.0128 7.46271 97.2614 7.46271 97.5398C7.46271 97.7727 7.51811 97.973 7.62891 98.1406C7.74254 98.3054 7.88743 98.4432 8.06357 98.554C8.2397 98.6619 8.42436 98.7514 8.61754 98.8224C8.81072 98.8906 8.98828 98.946 9.15021 98.9886L10.0366 99.2273C10.2638 99.2869 10.5167 99.3693 10.7951 99.4744C11.0763 99.5795 11.3448 99.723 11.6005 99.9048C11.859 100.084 12.0721 100.314 12.2397 100.595C12.4073 100.876 12.4911 101.222 12.4911 101.631C12.4911 102.102 12.3675 102.528 12.1204 102.909C11.8761 103.29 11.5181 103.592 11.0465 103.817C10.5778 104.041 10.0082 104.153 9.33771 104.153C8.71271 104.153 8.17152 104.053 7.71413 103.851C7.25959 103.649 6.90163 103.368 6.64027 103.007C6.38175 102.646 6.23544 102.227 6.20135 101.75H7.29226C7.32067 102.08 7.43146 102.352 7.62464 102.568C7.82067 102.781 8.06783 102.94 8.36612 103.045C8.66726 103.148 8.99112 103.199 9.33771 103.199C9.74112 103.199 10.1033 103.134 10.4244 103.003C10.7454 102.869 10.9996 102.685 11.1871 102.449C11.3746 102.21 11.4684 101.932 11.4684 101.614C11.4684 101.324 11.3874 101.088 11.2255 100.906C11.0636 100.724 10.8505 100.577 10.5863 100.463C10.3221 100.349 10.0366 100.25 9.72976 100.165L8.6559 99.858C7.97408 99.6619 7.4343 99.3821 7.03658 99.0185C6.63885 98.6548 6.43999 98.179 6.43999 97.5909C6.43999 97.1023 6.57209 96.6761 6.83629 96.3125C7.10334 95.946 7.46129 95.6619 7.91016 95.4602C8.36186 95.2557 8.86612 95.1534 9.42294 95.1534C9.98544 95.1534 10.4854 95.2543 10.9229 95.456C11.3604 95.6548 11.707 95.9276 11.9627 96.2741C12.2212 96.6207 12.3576 97.0142 12.3718 97.4545H11.3491Z" fill="white"/>
<path d="M55.6307 67.767L54.8778 67.9801C54.8305 67.8546 54.7607 67.7327 54.6683 67.6143C54.5784 67.4936 54.4553 67.3942 54.299 67.3161C54.1428 67.2379 53.9427 67.1989 53.6989 67.1989C53.3651 67.1989 53.0869 67.2758 52.8643 67.4297C52.6442 67.5812 52.5341 67.7741 52.5341 68.0085C52.5341 68.2169 52.6098 68.3814 52.7614 68.5021C52.9129 68.6229 53.1496 68.7235 53.4716 68.804L54.2812 69.0028C54.7689 69.1212 55.1323 69.3023 55.3714 69.5462C55.6106 69.7876 55.7301 70.099 55.7301 70.4801C55.7301 70.7926 55.6402 71.072 55.4602 71.3182C55.2827 71.5644 55.0341 71.7585 54.7145 71.9006C54.3949 72.0426 54.0232 72.1136 53.5994 72.1136C53.0431 72.1136 52.5826 71.9929 52.218 71.7514C51.8535 71.5099 51.6226 71.1572 51.5256 70.6932L52.321 70.4943C52.3968 70.7879 52.54 71.008 52.7507 71.1548C52.9638 71.3016 53.242 71.375 53.5852 71.375C53.9759 71.375 54.286 71.2921 54.5156 71.1264C54.7476 70.9583 54.8636 70.7571 54.8636 70.5227C54.8636 70.3333 54.7973 70.1747 54.6648 70.0469C54.5322 69.9167 54.3286 69.8196 54.054 69.7557L53.1449 69.5426C52.6454 69.4242 52.2784 69.2408 52.044 68.9922C51.812 68.7412 51.696 68.4276 51.696 68.0511C51.696 67.7434 51.7824 67.4711 51.9553 67.2344C52.1304 66.9976 52.3684 66.8118 52.669 66.6768C52.9721 66.5419 53.3153 66.4744 53.6989 66.4744C54.2386 66.4744 54.6624 66.5928 54.9702 66.8295C55.2803 67.0663 55.5005 67.3788 55.6307 67.767ZM59.3638 66.5455V67.2557H56.5371V66.5455H59.3638ZM57.361 65.2386H58.199V70.4375C58.199 70.6742 58.2334 70.8518 58.302 70.9702C58.373 71.0862 58.463 71.1643 58.5719 71.2045C58.6832 71.2424 58.8004 71.2614 58.9235 71.2614C59.0158 71.2614 59.0916 71.2566 59.1507 71.2472C59.2099 71.2353 59.2573 71.2259 59.2928 71.2188L59.4632 71.9716C59.4064 71.9929 59.3271 72.0142 59.2253 72.0355C59.1235 72.0592 58.9945 72.071 58.8382 72.071C58.6015 72.071 58.3695 72.0201 58.1422 71.9183C57.9173 71.8165 57.7303 71.6615 57.5811 71.4531C57.4344 71.2448 57.361 70.982 57.361 70.6648V65.2386ZM60.6245 72V66.5455H61.4341V67.3693H61.4909C61.5904 67.0994 61.7703 66.8804 62.0307 66.7124C62.2911 66.5443 62.5847 66.4602 62.9114 66.4602C62.973 66.4602 63.0499 66.4614 63.1422 66.4638C63.2346 66.4661 63.3044 66.4697 63.3517 66.4744V67.3267C63.3233 67.3196 63.2582 67.3089 63.1564 67.2947C63.057 67.2782 62.9516 67.2699 62.8404 67.2699C62.5752 67.2699 62.3385 67.3255 62.1301 67.4368C61.9242 67.5457 61.7608 67.6972 61.6401 67.8913C61.5217 68.0831 61.4625 68.3021 61.4625 68.5483V72H60.6245ZM64.3452 72V66.5455H65.1832V72H64.3452ZM64.7713 65.6364C64.608 65.6364 64.4671 65.5807 64.3487 65.4695C64.2327 65.3582 64.1747 65.2244 64.1747 65.0682C64.1747 64.9119 64.2327 64.7782 64.3487 64.6669C64.4671 64.5556 64.608 64.5 64.7713 64.5C64.9347 64.5 65.0743 64.5556 65.1903 64.6669C65.3087 64.7782 65.3679 64.9119 65.3679 65.0682C65.3679 65.2244 65.3087 65.3582 65.1903 65.4695C65.0743 65.5807 64.9347 65.6364 64.7713 65.6364ZM67.4995 70.0114L67.4853 68.9744H67.6557L70.0421 66.5455H71.079L68.5364 69.1165H68.4654L67.4995 70.0114ZM66.7182 72V64.7273H67.5563V72H66.7182ZM70.1841 72L68.0534 69.3011L68.65 68.7188L71.2495 72H70.1841ZM74.22 72.1136C73.6944 72.1136 73.2411 71.9976 72.8599 71.7656C72.4811 71.5312 72.1887 71.2045 71.9828 70.7855C71.7792 70.3641 71.6774 69.8741 71.6774 69.3153C71.6774 68.7566 71.7792 68.2642 71.9828 67.8381C72.1887 67.4096 72.4752 67.0758 72.8422 66.8366C73.2115 66.5952 73.6423 66.4744 74.1348 66.4744C74.4189 66.4744 74.6994 66.5218 74.9764 66.6165C75.2534 66.7112 75.5055 66.8651 75.7328 67.0781C75.96 67.2888 76.1412 67.5682 76.2761 67.9162C76.411 68.2642 76.4785 68.6927 76.4785 69.2017V69.5568H72.274V68.8324H75.6262C75.6262 68.5246 75.5647 68.25 75.4416 68.0085C75.3208 67.767 75.148 67.5765 74.9231 67.4368C74.7006 67.2971 74.4378 67.2273 74.1348 67.2273C73.801 67.2273 73.5121 67.3101 73.2683 67.4759C73.0268 67.6392 72.841 67.8523 72.7108 68.1151C72.5806 68.3778 72.5154 68.6596 72.5154 68.9602V69.4432C72.5154 69.8551 72.5865 70.2043 72.7285 70.4908C72.8729 70.7749 73.073 70.9915 73.3287 71.1406C73.5843 71.2874 73.8815 71.3608 74.22 71.3608C74.4402 71.3608 74.639 71.33 74.8166 71.2685C74.9965 71.2045 75.1516 71.1098 75.2818 70.9844C75.412 70.8565 75.5126 70.6979 75.5836 70.5085L76.3933 70.7358C76.3081 71.0104 76.1648 71.2519 75.9636 71.4602C75.7624 71.6662 75.5138 71.8272 75.2179 71.9432C74.9219 72.0568 74.5893 72.1136 74.22 72.1136ZM51.767 86.0455V78.5455H52.5767V79.4119H52.6761C52.7377 79.3172 52.8229 79.1965 52.9318 79.0497C53.0431 78.9006 53.2017 78.768 53.4077 78.652C53.616 78.5336 53.8977 78.4744 54.2528 78.4744C54.7121 78.4744 55.117 78.5893 55.4673 78.8189C55.8177 79.0485 56.0911 79.3741 56.2876 79.7955C56.4841 80.2169 56.5824 80.714 56.5824 81.2869C56.5824 81.8646 56.4841 82.3653 56.2876 82.7891C56.0911 83.2105 55.8189 83.5372 55.4709 83.7692C55.1229 83.9988 54.7216 84.1136 54.267 84.1136C53.9167 84.1136 53.6361 84.0556 53.4254 83.9396C53.2147 83.8213 53.0526 83.6875 52.9389 83.5384C52.8253 83.3868 52.7377 83.2614 52.6761 83.1619H52.6051V86.0455H51.767ZM52.5909 81.2727C52.5909 81.6847 52.6513 82.0481 52.772 82.3629C52.8928 82.6754 53.0691 82.9205 53.3011 83.098C53.5331 83.2732 53.8172 83.3608 54.1534 83.3608C54.5038 83.3608 54.7962 83.2685 55.0305 83.0838C55.2673 82.8968 55.4448 82.6458 55.5632 82.331C55.6839 82.0137 55.7443 81.661 55.7443 81.2727C55.7443 80.8892 55.6851 80.5436 55.5668 80.2358C55.4508 79.9257 55.2744 79.6806 55.0376 79.5007C54.8033 79.3184 54.5085 79.2273 54.1534 79.2273C53.8125 79.2273 53.526 79.3137 53.294 79.4865C53.062 79.657 52.8868 79.8961 52.7685 80.2038C52.6501 80.5092 52.5909 80.8655 52.5909 81.2727ZM57.8608 84V78.5455H58.6705V79.3693H58.7273C58.8267 79.0994 59.0066 78.8804 59.267 78.7124C59.5275 78.5443 59.821 78.4602 60.1477 78.4602C60.2093 78.4602 60.2862 78.4614 60.3786 78.4638C60.4709 78.4661 60.5407 78.4697 60.5881 78.4744V79.3267C60.5597 79.3196 60.4946 79.3089 60.3928 79.2947C60.2933 79.2782 60.188 79.2699 60.0767 79.2699C59.8116 79.2699 59.5748 79.3255 59.3665 79.4368C59.1605 79.5457 58.9972 79.6972 58.8764 79.8913C58.758 80.0831 58.6989 80.3021 58.6989 80.5483V84H57.8608ZM61.5815 84V78.5455H62.4196V84H61.5815ZM62.0076 77.6364C61.8443 77.6364 61.7034 77.5807 61.585 77.4695C61.469 77.3582 61.411 77.2244 61.411 77.0682C61.411 76.9119 61.469 76.7782 61.585 76.6669C61.7034 76.5556 61.8443 76.5 62.0076 76.5C62.171 76.5 62.3107 76.5556 62.4267 76.6669C62.545 76.7782 62.6042 76.9119 62.6042 77.0682C62.6042 77.2244 62.545 77.3582 62.4267 77.4695C62.3107 77.5807 62.171 77.6364 62.0076 77.6364ZM66.1705 84.1136C65.6591 84.1136 65.2188 83.9929 64.8494 83.7514C64.4801 83.5099 64.196 83.1773 63.9972 82.7536C63.7983 82.3298 63.6989 81.8456 63.6989 81.3011C63.6989 80.7472 63.8007 80.2583 64.0043 79.8345C64.2102 79.4084 64.4967 79.0758 64.8636 78.8366C65.233 78.5952 65.6638 78.4744 66.1562 78.4744C66.5398 78.4744 66.8854 78.5455 67.1932 78.6875C67.5009 78.8295 67.7531 79.0284 67.9496 79.2841C68.1461 79.5398 68.268 79.8381 68.3153 80.179H67.4773C67.4134 79.9304 67.2713 79.7102 67.0511 79.5185C66.8333 79.3243 66.5398 79.2273 66.1705 79.2273C65.8438 79.2273 65.5573 79.3125 65.3111 79.483C65.0672 79.651 64.8767 79.889 64.7393 80.1967C64.6044 80.5021 64.5369 80.8608 64.5369 81.2727C64.5369 81.6941 64.6032 82.0611 64.7358 82.3736C64.8707 82.6861 65.0601 82.9287 65.304 83.1016C65.5502 83.2744 65.839 83.3608 66.1705 83.3608C66.3883 83.3608 66.5859 83.3229 66.7635 83.2472C66.9411 83.1714 67.0914 83.0625 67.2145 82.9205C67.3376 82.7784 67.4252 82.608 67.4773 82.4091H68.3153C68.268 82.7311 68.1508 83.0211 67.9638 83.2791C67.7791 83.5348 67.5341 83.7384 67.2287 83.8899C66.9257 84.0391 66.5729 84.1136 66.1705 84.1136ZM71.8274 84.1136C71.3018 84.1136 70.8485 83.9976 70.4673 83.7656C70.0885 83.5312 69.7962 83.2045 69.5902 82.7855C69.3866 82.3641 69.2848 81.8741 69.2848 81.3153C69.2848 80.7566 69.3866 80.2642 69.5902 79.8381C69.7962 79.4096 70.0826 79.0758 70.4496 78.8366C70.8189 78.5952 71.2498 78.4744 71.7422 78.4744C72.0263 78.4744 72.3068 78.5218 72.5838 78.6165C72.8608 78.7112 73.1129 78.8651 73.3402 79.0781C73.5675 79.2888 73.7486 79.5682 73.8835 79.9162C74.0185 80.2642 74.0859 80.6927 74.0859 81.2017V81.5568H69.8814V80.8324H73.2337C73.2337 80.5246 73.1721 80.25 73.049 80.0085C72.9283 79.767 72.7554 79.5765 72.5305 79.4368C72.308 79.2971 72.0452 79.2273 71.7422 79.2273C71.4084 79.2273 71.1196 79.3101 70.8757 79.4759C70.6342 79.6392 70.4484 79.8523 70.3182 80.1151C70.188 80.3778 70.1229 80.6596 70.1229 80.9602V81.4432C70.1229 81.8551 70.1939 82.2043 70.3359 82.4908C70.4804 82.7749 70.6804 82.9915 70.9361 83.1406C71.1918 83.2874 71.4889 83.3608 71.8274 83.3608C72.0476 83.3608 72.2464 83.33 72.424 83.2685C72.6039 83.2045 72.759 83.1098 72.8892 82.9844C73.0194 82.8565 73.12 82.6979 73.1911 82.5085L74.0007 82.7358C73.9155 83.0104 73.7723 83.2519 73.571 83.4602C73.3698 83.6662 73.1212 83.8272 72.8253 83.9432C72.5294 84.0568 72.1967 84.1136 71.8274 84.1136Z" fill="white"/>
</g>
<defs>
<clipPath id="clip0_4_2">
<rect width="120" height="107" fill="white"/>
</clipPath>
</defs>
</svg>
