<svg width="120" height="107" viewBox="0 0 120 107" fill="none" xmlns="http://www.w3.org/2000/svg">
<g clip-path="url(#clip0_1_16)">
<line x1="69.4536" y1="66.5829" x2="82.4536" y2="50.7317" stroke="#EF5350" stroke-width="4"/>
<line x1="81.7867" y1="51.5207" x2="116.667" y2="8.99597" stroke="#2BC48A" stroke-width="4"/>
<line x1="68" y1="45" x2="68" y2="60" stroke="white" stroke-width="4"/>
<path d="M20 52L120 52" stroke="white" stroke-width="4"/>
<line x1="17.591" y1="103.98" x2="17.591" y2="3.98018" stroke="white" stroke-width="4"/>
<path d="M9.47727 13.0909V2.18182H10.1761V13.0909H9.47727ZM11.8295 5.45455C11.7784 5.02273 11.571 4.6875 11.2074 4.44886C10.8438 4.21023 10.3977 4.09091 9.86932 4.09091C9.48295 4.09091 9.14489 4.15341 8.85511 4.27841C8.56818 4.40341 8.34375 4.57528 8.18182 4.79403C8.02273 5.01278 7.94318 5.26136 7.94318 5.53977C7.94318 5.77273 7.99858 5.97301 8.10938 6.14062C8.22301 6.3054 8.3679 6.44318 8.54403 6.55398C8.72017 6.66193 8.90483 6.75142 9.09801 6.82244C9.29119 6.89062 9.46875 6.94602 9.63068 6.98864L10.517 7.22727C10.7443 7.28693 10.9972 7.36932 11.2756 7.47443C11.5568 7.57955 11.8253 7.72301 12.081 7.90483C12.3395 8.08381 12.5526 8.31392 12.7202 8.59517C12.8878 8.87642 12.9716 9.22159 12.9716 9.63068C12.9716 10.1023 12.848 10.5284 12.6009 10.9091C12.3565 11.2898 11.9986 11.5923 11.527 11.8168C11.0582 12.0412 10.4886 12.1534 9.81818 12.1534C9.19318 12.1534 8.65199 12.0526 8.1946 11.8509C7.74006 11.6491 7.3821 11.3679 7.12074 11.0071C6.86222 10.6463 6.71591 10.2273 6.68182 9.75H7.77273C7.80114 10.0795 7.91193 10.3523 8.10511 10.5682C8.30114 10.7812 8.5483 10.9403 8.84659 11.0455C9.14773 11.1477 9.47159 11.1989 9.81818 11.1989C10.2216 11.1989 10.5838 11.1335 10.9048 11.0028C11.2259 10.8693 11.4801 10.6847 11.6676 10.4489C11.8551 10.2102 11.9489 9.93182 11.9489 9.61364C11.9489 9.32386 11.8679 9.08807 11.706 8.90625C11.544 8.72443 11.331 8.5767 11.0668 8.46307C10.8026 8.34943 10.517 8.25 10.2102 8.16477L9.13636 7.85795C8.45455 7.66193 7.91477 7.3821 7.51705 7.01847C7.11932 6.65483 6.92045 6.17898 6.92045 5.59091C6.92045 5.10227 7.05256 4.67614 7.31676 4.3125C7.58381 3.94602 7.94176 3.66193 8.39062 3.46023C8.84233 3.25568 9.34659 3.15341 9.90341 3.15341C10.4659 3.15341 10.9659 3.25426 11.4034 3.45597C11.8409 3.65483 12.1875 3.92756 12.4432 4.27415C12.7017 4.62074 12.8381 5.0142 12.8523 5.45455H11.8295Z" fill="white"/>
<path d="M9.75 56.1193C9.10795 56.1193 8.56108 55.9446 8.10938 55.5952C7.65767 55.2429 7.3125 54.733 7.07386 54.0653C6.83523 53.3949 6.71591 52.5852 6.71591 51.6364C6.71591 50.6932 6.83523 49.8878 7.07386 49.2202C7.31534 48.5497 7.66193 48.0384 8.11364 47.6861C8.56818 47.331 9.11364 47.1534 9.75 47.1534C10.3864 47.1534 10.9304 47.331 11.3821 47.6861C11.8366 48.0384 12.1832 48.5497 12.4219 49.2202C12.6634 49.8878 12.7841 50.6932 12.7841 51.6364C12.7841 52.5852 12.6648 53.3949 12.4261 54.0653C12.1875 54.733 11.8423 55.2429 11.3906 55.5952C10.9389 55.9446 10.392 56.1193 9.75 56.1193ZM9.75 55.1818C10.3864 55.1818 10.8807 54.875 11.233 54.2614C11.5852 53.6477 11.7614 52.7727 11.7614 51.6364C11.7614 50.8807 11.6804 50.2372 11.5185 49.706C11.3594 49.1747 11.1293 48.7699 10.8281 48.4915C10.5298 48.2131 10.1705 48.0739 9.75 48.0739C9.11932 48.0739 8.62642 48.3849 8.27131 49.0071C7.91619 49.6264 7.73864 50.5028 7.73864 51.6364C7.73864 52.392 7.81818 53.0341 7.97727 53.5625C8.13636 54.0909 8.36506 54.4929 8.66335 54.7685C8.96449 55.044 9.3267 55.1818 9.75 55.1818Z" fill="white"/>
<path d="M4.67045 99.1676V100.105H0.852273V99.1676H4.67045ZM8.9968 105.091V94.1818H9.69567V105.091H8.9968ZM11.3491 97.4545C11.2979 97.0227 11.0906 96.6875 10.7269 96.4489C10.3633 96.2102 9.91726 96.0909 9.38885 96.0909C9.00249 96.0909 8.66442 96.1534 8.37464 96.2784C8.08771 96.4034 7.86328 96.5753 7.70135 96.794C7.54226 97.0128 7.46271 97.2614 7.46271 97.5398C7.46271 97.7727 7.51811 97.973 7.62891 98.1406C7.74254 98.3054 7.88743 98.4432 8.06357 98.554C8.2397 98.6619 8.42436 98.7514 8.61754 98.8224C8.81072 98.8906 8.98828 98.946 9.15021 98.9886L10.0366 99.2273C10.2638 99.2869 10.5167 99.3693 10.7951 99.4744C11.0763 99.5795 11.3448 99.723 11.6005 99.9048C11.859 100.084 12.0721 100.314 12.2397 100.595C12.4073 100.876 12.4911 101.222 12.4911 101.631C12.4911 102.102 12.3675 102.528 12.1204 102.909C11.8761 103.29 11.5181 103.592 11.0465 103.817C10.5778 104.041 10.0082 104.153 9.33771 104.153C8.71271 104.153 8.17152 104.053 7.71413 103.851C7.25959 103.649 6.90163 103.368 6.64027 103.007C6.38175 102.646 6.23544 102.227 6.20135 101.75H7.29226C7.32067 102.08 7.43146 102.352 7.62464 102.568C7.82067 102.781 8.06783 102.94 8.36612 103.045C8.66726 103.148 8.99112 103.199 9.33771 103.199C9.74112 103.199 10.1033 103.134 10.4244 103.003C10.7454 102.869 10.9996 102.685 11.1871 102.449C11.3746 102.21 11.4684 101.932 11.4684 101.614C11.4684 101.324 11.3874 101.088 11.2255 100.906C11.0636 100.724 10.8505 100.577 10.5863 100.463C10.3221 100.349 10.0366 100.25 9.72976 100.165L8.6559 99.858C7.97408 99.6619 7.4343 99.3821 7.03658 99.0185C6.63885 98.6548 6.43999 98.179 6.43999 97.5909C6.43999 97.1023 6.57209 96.6761 6.83629 96.3125C7.10334 95.946 7.46129 95.6619 7.91016 95.4602C8.36186 95.2557 8.86612 95.1534 9.42294 95.1534C9.98544 95.1534 10.4854 95.2543 10.9229 95.456C11.3604 95.6548 11.707 95.9276 11.9627 96.2741C12.2212 96.6207 12.3576 97.0142 12.3718 97.4545H11.3491Z" fill="white"/>
<path d="M61.6307 23.767L60.8778 23.9801C60.8305 23.8546 60.7607 23.7327 60.6683 23.6143C60.5784 23.4936 60.4553 23.3942 60.299 23.3161C60.1428 23.2379 59.9427 23.1989 59.6989 23.1989C59.3651 23.1989 59.0869 23.2758 58.8643 23.4297C58.6442 23.5812 58.5341 23.7741 58.5341 24.0085C58.5341 24.2169 58.6098 24.3814 58.7614 24.5021C58.9129 24.6229 59.1496 24.7235 59.4716 24.804L60.2812 25.0028C60.7689 25.1212 61.1323 25.3023 61.3714 25.5462C61.6106 25.7876 61.7301 26.099 61.7301 26.4801C61.7301 26.7926 61.6402 27.072 61.4602 27.3182C61.2827 27.5644 61.0341 27.7585 60.7145 27.9006C60.3949 28.0426 60.0232 28.1136 59.5994 28.1136C59.0431 28.1136 58.5826 27.9929 58.218 27.7514C57.8535 27.5099 57.6226 27.1572 57.5256 26.6932L58.321 26.4943C58.3968 26.7879 58.54 27.008 58.7507 27.1548C58.9638 27.3016 59.242 27.375 59.5852 27.375C59.9759 27.375 60.286 27.2921 60.5156 27.1264C60.7476 26.9583 60.8636 26.7571 60.8636 26.5227C60.8636 26.3333 60.7973 26.1747 60.6648 26.0469C60.5322 25.9167 60.3286 25.8196 60.054 25.7557L59.1449 25.5426C58.6454 25.4242 58.2784 25.2408 58.044 24.9922C57.812 24.7412 57.696 24.4276 57.696 24.0511C57.696 23.7434 57.7824 23.4711 57.9553 23.2344C58.1304 22.9976 58.3684 22.8118 58.669 22.6768C58.9721 22.5419 59.3153 22.4744 59.6989 22.4744C60.2386 22.4744 60.6624 22.5928 60.9702 22.8295C61.2803 23.0663 61.5005 23.3788 61.6307 23.767ZM65.3638 22.5455V23.2557H62.5371V22.5455H65.3638ZM63.361 21.2386H64.199V26.4375C64.199 26.6742 64.2334 26.8518 64.302 26.9702C64.373 27.0862 64.463 27.1643 64.5719 27.2045C64.6832 27.2424 64.8004 27.2614 64.9235 27.2614C65.0158 27.2614 65.0916 27.2566 65.1507 27.2472C65.2099 27.2353 65.2573 27.2259 65.2928 27.2188L65.4632 27.9716C65.4064 27.9929 65.3271 28.0142 65.2253 28.0355C65.1235 28.0592 64.9945 28.071 64.8382 28.071C64.6015 28.071 64.3695 28.0201 64.1422 27.9183C63.9173 27.8165 63.7303 27.6615 63.5811 27.4531C63.4344 27.2448 63.361 26.982 63.361 26.6648V21.2386ZM66.6245 28V22.5455H67.4341V23.3693H67.4909C67.5904 23.0994 67.7703 22.8804 68.0307 22.7124C68.2911 22.5443 68.5847 22.4602 68.9114 22.4602C68.973 22.4602 69.0499 22.4614 69.1422 22.4638C69.2346 22.4661 69.3044 22.4697 69.3517 22.4744V23.3267C69.3233 23.3196 69.2582 23.3089 69.1564 23.2947C69.057 23.2782 68.9516 23.2699 68.8404 23.2699C68.5752 23.2699 68.3385 23.3255 68.1301 23.4368C67.9242 23.5457 67.7608 23.6972 67.6401 23.8913C67.5217 24.0831 67.4625 24.3021 67.4625 24.5483V28H66.6245ZM70.3452 28V22.5455H71.1832V28H70.3452ZM70.7713 21.6364C70.608 21.6364 70.4671 21.5807 70.3487 21.4695C70.2327 21.3582 70.1747 21.2244 70.1747 21.0682C70.1747 20.9119 70.2327 20.7782 70.3487 20.6669C70.4671 20.5556 70.608 20.5 70.7713 20.5C70.9347 20.5 71.0743 20.5556 71.1903 20.6669C71.3087 20.7782 71.3679 20.9119 71.3679 21.0682C71.3679 21.2244 71.3087 21.3582 71.1903 21.4695C71.0743 21.5807 70.9347 21.6364 70.7713 21.6364ZM73.4995 26.0114L73.4853 24.9744H73.6557L76.0421 22.5455H77.079L74.5364 25.1165H74.4654L73.4995 26.0114ZM72.7182 28V20.7273H73.5563V28H72.7182ZM76.1841 28L74.0534 25.3011L74.65 24.7188L77.2495 28H76.1841ZM80.22 28.1136C79.6944 28.1136 79.2411 27.9976 78.8599 27.7656C78.4811 27.5312 78.1887 27.2045 77.9828 26.7855C77.7792 26.3641 77.6774 25.8741 77.6774 25.3153C77.6774 24.7566 77.7792 24.2642 77.9828 23.8381C78.1887 23.4096 78.4752 23.0758 78.8422 22.8366C79.2115 22.5952 79.6423 22.4744 80.1348 22.4744C80.4189 22.4744 80.6994 22.5218 80.9764 22.6165C81.2534 22.7112 81.5055 22.8651 81.7328 23.0781C81.96 23.2888 82.1412 23.5682 82.2761 23.9162C82.411 24.2642 82.4785 24.6927 82.4785 25.2017V25.5568H78.274V24.8324H81.6262C81.6262 24.5246 81.5647 24.25 81.4416 24.0085C81.3208 23.767 81.148 23.5765 80.9231 23.4368C80.7006 23.2971 80.4378 23.2273 80.1348 23.2273C79.801 23.2273 79.5121 23.3101 79.2683 23.4759C79.0268 23.6392 78.841 23.8523 78.7108 24.1151C78.5806 24.3778 78.5154 24.6596 78.5154 24.9602V25.4432C78.5154 25.8551 78.5865 26.2043 78.7285 26.4908C78.8729 26.7749 79.073 26.9915 79.3287 27.1406C79.5843 27.2874 79.8815 27.3608 80.22 27.3608C80.4402 27.3608 80.639 27.33 80.8166 27.2685C80.9965 27.2045 81.1516 27.1098 81.2818 26.9844C81.412 26.8565 81.5126 26.6979 81.5836 26.5085L82.3933 26.7358C82.3081 27.0104 82.1648 27.2519 81.9636 27.4602C81.7624 27.6662 81.5138 27.8272 81.2179 27.9432C80.9219 28.0568 80.5893 28.1136 80.22 28.1136ZM57.767 42.0455V34.5455H58.5767V35.4119H58.6761C58.7377 35.3172 58.8229 35.1965 58.9318 35.0497C59.0431 34.9006 59.2017 34.768 59.4077 34.652C59.616 34.5336 59.8977 34.4744 60.2528 34.4744C60.7121 34.4744 61.117 34.5893 61.4673 34.8189C61.8177 35.0485 62.0911 35.3741 62.2876 35.7955C62.4841 36.2169 62.5824 36.714 62.5824 37.2869C62.5824 37.8646 62.4841 38.3653 62.2876 38.7891C62.0911 39.2105 61.8189 39.5372 61.4709 39.7692C61.1229 39.9988 60.7216 40.1136 60.267 40.1136C59.9167 40.1136 59.6361 40.0556 59.4254 39.9396C59.2147 39.8213 59.0526 39.6875 58.9389 39.5384C58.8253 39.3868 58.7377 39.2614 58.6761 39.1619H58.6051V42.0455H57.767ZM58.5909 37.2727C58.5909 37.6847 58.6513 38.0481 58.772 38.3629C58.8928 38.6754 59.0691 38.9205 59.3011 39.098C59.5331 39.2732 59.8172 39.3608 60.1534 39.3608C60.5038 39.3608 60.7962 39.2685 61.0305 39.0838C61.2673 38.8968 61.4448 38.6458 61.5632 38.331C61.6839 38.0137 61.7443 37.661 61.7443 37.2727C61.7443 36.8892 61.6851 36.5436 61.5668 36.2358C61.4508 35.9257 61.2744 35.6806 61.0376 35.5007C60.8033 35.3184 60.5085 35.2273 60.1534 35.2273C59.8125 35.2273 59.526 35.3137 59.294 35.4865C59.062 35.657 58.8868 35.8961 58.7685 36.2038C58.6501 36.5092 58.5909 36.8655 58.5909 37.2727ZM63.8608 40V34.5455H64.6705V35.3693H64.7273C64.8267 35.0994 65.0066 34.8804 65.267 34.7124C65.5275 34.5443 65.821 34.4602 66.1477 34.4602C66.2093 34.4602 66.2862 34.4614 66.3786 34.4638C66.4709 34.4661 66.5407 34.4697 66.5881 34.4744V35.3267C66.5597 35.3196 66.4946 35.3089 66.3928 35.2947C66.2933 35.2782 66.188 35.2699 66.0767 35.2699C65.8116 35.2699 65.5748 35.3255 65.3665 35.4368C65.1605 35.5457 64.9972 35.6972 64.8764 35.8913C64.758 36.0831 64.6989 36.3021 64.6989 36.5483V40H63.8608ZM67.5815 40V34.5455H68.4196V40H67.5815ZM68.0076 33.6364C67.8443 33.6364 67.7034 33.5807 67.585 33.4695C67.469 33.3582 67.411 33.2244 67.411 33.0682C67.411 32.9119 67.469 32.7782 67.585 32.6669C67.7034 32.5556 67.8443 32.5 68.0076 32.5C68.171 32.5 68.3107 32.5556 68.4267 32.6669C68.545 32.7782 68.6042 32.9119 68.6042 33.0682C68.6042 33.2244 68.545 33.3582 68.4267 33.4695C68.3107 33.5807 68.171 33.6364 68.0076 33.6364ZM72.1705 40.1136C71.6591 40.1136 71.2188 39.9929 70.8494 39.7514C70.4801 39.5099 70.196 39.1773 69.9972 38.7536C69.7983 38.3298 69.6989 37.8456 69.6989 37.3011C69.6989 36.7472 69.8007 36.2583 70.0043 35.8345C70.2102 35.4084 70.4967 35.0758 70.8636 34.8366C71.233 34.5952 71.6638 34.4744 72.1562 34.4744C72.5398 34.4744 72.8854 34.5455 73.1932 34.6875C73.5009 34.8295 73.7531 35.0284 73.9496 35.2841C74.1461 35.5398 74.268 35.8381 74.3153 36.179H73.4773C73.4134 35.9304 73.2713 35.7102 73.0511 35.5185C72.8333 35.3243 72.5398 35.2273 72.1705 35.2273C71.8438 35.2273 71.5573 35.3125 71.3111 35.483C71.0672 35.651 70.8767 35.889 70.7393 36.1967C70.6044 36.5021 70.5369 36.8608 70.5369 37.2727C70.5369 37.6941 70.6032 38.0611 70.7358 38.3736C70.8707 38.6861 71.0601 38.9287 71.304 39.1016C71.5502 39.2744 71.839 39.3608 72.1705 39.3608C72.3883 39.3608 72.5859 39.3229 72.7635 39.2472C72.9411 39.1714 73.0914 39.0625 73.2145 38.9205C73.3376 38.7784 73.4252 38.608 73.4773 38.4091H74.3153C74.268 38.7311 74.1508 39.0211 73.9638 39.2791C73.7791 39.5348 73.5341 39.7384 73.2287 39.8899C72.9257 40.0391 72.5729 40.1136 72.1705 40.1136ZM77.8274 40.1136C77.3018 40.1136 76.8485 39.9976 76.4673 39.7656C76.0885 39.5312 75.7962 39.2045 75.5902 38.7855C75.3866 38.3641 75.2848 37.8741 75.2848 37.3153C75.2848 36.7566 75.3866 36.2642 75.5902 35.8381C75.7962 35.4096 76.0826 35.0758 76.4496 34.8366C76.8189 34.5952 77.2498 34.4744 77.7422 34.4744C78.0263 34.4744 78.3068 34.5218 78.5838 34.6165C78.8608 34.7112 79.1129 34.8651 79.3402 35.0781C79.5675 35.2888 79.7486 35.5682 79.8835 35.9162C80.0185 36.2642 80.0859 36.6927 80.0859 37.2017V37.5568H75.8814V36.8324H79.2337C79.2337 36.5246 79.1721 36.25 79.049 36.0085C78.9283 35.767 78.7554 35.5765 78.5305 35.4368C78.308 35.2971 78.0452 35.2273 77.7422 35.2273C77.4084 35.2273 77.1196 35.3101 76.8757 35.4759C76.6342 35.6392 76.4484 35.8523 76.3182 36.1151C76.188 36.3778 76.1229 36.6596 76.1229 36.9602V37.4432C76.1229 37.8551 76.1939 38.2043 76.3359 38.4908C76.4804 38.7749 76.6804 38.9915 76.9361 39.1406C77.1918 39.2874 77.4889 39.3608 77.8274 39.3608C78.0476 39.3608 78.2464 39.33 78.424 39.2685C78.6039 39.2045 78.759 39.1098 78.8892 38.9844C79.0194 38.8565 79.12 38.6979 79.1911 38.5085L80.0007 38.7358C79.9155 39.0104 79.7723 39.2519 79.571 39.4602C79.3698 39.6662 79.1212 39.8272 78.8253 39.9432C78.5294 40.0568 78.1967 40.1136 77.8274 40.1136Z" fill="white"/>
<line x1="21" y1="66" x2="71" y2="66" stroke="#EF5350" stroke-width="4"/>
</g>
<defs>
<clipPath id="clip0_1_16">
<rect width="120" height="107" fill="white"/>
</clipPath>
</defs>
</svg>
