<svg width="120" height="107" viewBox="0 0 120 107" fill="none" xmlns="http://www.w3.org/2000/svg">
<g clip-path="url(#clip0_5_14)">
<line x1="18.9475" y1="74.986" x2="37.9883" y2="52.2941" stroke="#EF5350" stroke-width="4"/>
<line x1="37.9684" y1="51.8259" x2="64.731" y2="19.9315" stroke="#2BC48A" stroke-width="4"/>
<line x1="68" y1="45" x2="68" y2="60" stroke="white" stroke-width="4"/>
<path d="M20 52L120 52" stroke="white" stroke-width="4"/>
<line x1="17.591" y1="103.98" x2="17.591" y2="3.98018" stroke="white" stroke-width="4"/>
<path d="M9.47727 13.0909V2.18182H10.1761V13.0909H9.47727ZM11.8295 5.45455C11.7784 5.02273 11.571 4.6875 11.2074 4.44886C10.8438 4.21023 10.3977 4.09091 9.86932 4.09091C9.48295 4.09091 9.14489 4.15341 8.85511 4.27841C8.56818 4.40341 8.34375 4.57528 8.18182 4.79403C8.02273 5.01278 7.94318 5.26136 7.94318 5.53977C7.94318 5.77273 7.99858 5.97301 8.10938 6.14062C8.22301 6.3054 8.3679 6.44318 8.54403 6.55398C8.72017 6.66193 8.90483 6.75142 9.09801 6.82244C9.29119 6.89062 9.46875 6.94602 9.63068 6.98864L10.517 7.22727C10.7443 7.28693 10.9972 7.36932 11.2756 7.47443C11.5568 7.57955 11.8253 7.72301 12.081 7.90483C12.3395 8.08381 12.5526 8.31392 12.7202 8.59517C12.8878 8.87642 12.9716 9.22159 12.9716 9.63068C12.9716 10.1023 12.848 10.5284 12.6009 10.9091C12.3565 11.2898 11.9986 11.5923 11.527 11.8168C11.0582 12.0412 10.4886 12.1534 9.81818 12.1534C9.19318 12.1534 8.65199 12.0526 8.1946 11.8509C7.74006 11.6491 7.3821 11.3679 7.12074 11.0071C6.86222 10.6463 6.71591 10.2273 6.68182 9.75H7.77273C7.80114 10.0795 7.91193 10.3523 8.10511 10.5682C8.30114 10.7812 8.5483 10.9403 8.84659 11.0455C9.14773 11.1477 9.47159 11.1989 9.81818 11.1989C10.2216 11.1989 10.5838 11.1335 10.9048 11.0028C11.2259 10.8693 11.4801 10.6847 11.6676 10.4489C11.8551 10.2102 11.9489 9.93182 11.9489 9.61364C11.9489 9.32386 11.8679 9.08807 11.706 8.90625C11.544 8.72443 11.331 8.5767 11.0668 8.46307C10.8026 8.34943 10.517 8.25 10.2102 8.16477L9.13636 7.85795C8.45455 7.66193 7.91477 7.3821 7.51705 7.01847C7.11932 6.65483 6.92045 6.17898 6.92045 5.59091C6.92045 5.10227 7.05256 4.67614 7.31676 4.3125C7.58381 3.94602 7.94176 3.66193 8.39062 3.46023C8.84233 3.25568 9.34659 3.15341 9.90341 3.15341C10.4659 3.15341 10.9659 3.25426 11.4034 3.45597C11.8409 3.65483 12.1875 3.92756 12.4432 4.27415C12.7017 4.62074 12.8381 5.0142 12.8523 5.45455H11.8295Z" fill="white"/>
<path d="M9.75 56.1193C9.10795 56.1193 8.56108 55.9446 8.10938 55.5952C7.65767 55.2429 7.3125 54.733 7.07386 54.0653C6.83523 53.3949 6.71591 52.5852 6.71591 51.6364C6.71591 50.6932 6.83523 49.8878 7.07386 49.2202C7.31534 48.5497 7.66193 48.0384 8.11364 47.6861C8.56818 47.331 9.11364 47.1534 9.75 47.1534C10.3864 47.1534 10.9304 47.331 11.3821 47.6861C11.8366 48.0384 12.1832 48.5497 12.4219 49.2202C12.6634 49.8878 12.7841 50.6932 12.7841 51.6364C12.7841 52.5852 12.6648 53.3949 12.4261 54.0653C12.1875 54.733 11.8423 55.2429 11.3906 55.5952C10.9389 55.9446 10.392 56.1193 9.75 56.1193ZM9.75 55.1818C10.3864 55.1818 10.8807 54.875 11.233 54.2614C11.5852 53.6477 11.7614 52.7727 11.7614 51.6364C11.7614 50.8807 11.6804 50.2372 11.5185 49.706C11.3594 49.1747 11.1293 48.7699 10.8281 48.4915C10.5298 48.2131 10.1705 48.0739 9.75 48.0739C9.11932 48.0739 8.62642 48.3849 8.27131 49.0071C7.91619 49.6264 7.73864 50.5028 7.73864 51.6364C7.73864 52.392 7.81818 53.0341 7.97727 53.5625C8.13636 54.0909 8.36506 54.4929 8.66335 54.7685C8.96449 55.044 9.3267 55.1818 9.75 55.1818Z" fill="white"/>
<path d="M4.67045 99.1676V100.105H0.852273V99.1676H4.67045ZM8.9968 105.091V94.1818H9.69567V105.091H8.9968ZM11.3491 97.4545C11.2979 97.0227 11.0906 96.6875 10.7269 96.4489C10.3633 96.2102 9.91726 96.0909 9.38885 96.0909C9.00249 96.0909 8.66442 96.1534 8.37464 96.2784C8.08771 96.4034 7.86328 96.5753 7.70135 96.794C7.54226 97.0128 7.46271 97.2614 7.46271 97.5398C7.46271 97.7727 7.51811 97.973 7.62891 98.1406C7.74254 98.3054 7.88743 98.4432 8.06357 98.554C8.2397 98.6619 8.42436 98.7514 8.61754 98.8224C8.81072 98.8906 8.98828 98.946 9.15021 98.9886L10.0366 99.2273C10.2638 99.2869 10.5167 99.3693 10.7951 99.4744C11.0763 99.5795 11.3448 99.723 11.6005 99.9048C11.859 100.084 12.0721 100.314 12.2397 100.595C12.4073 100.876 12.4911 101.222 12.4911 101.631C12.4911 102.102 12.3675 102.528 12.1204 102.909C11.8761 103.29 11.5181 103.592 11.0465 103.817C10.5778 104.041 10.0082 104.153 9.33771 104.153C8.71271 104.153 8.17152 104.053 7.71413 103.851C7.25959 103.649 6.90163 103.368 6.64027 103.007C6.38175 102.646 6.23544 102.227 6.20135 101.75H7.29226C7.32067 102.08 7.43146 102.352 7.62464 102.568C7.82067 102.781 8.06783 102.94 8.36612 103.045C8.66726 103.148 8.99112 103.199 9.33771 103.199C9.74112 103.199 10.1033 103.134 10.4244 103.003C10.7454 102.869 10.9996 102.685 11.1871 102.449C11.3746 102.21 11.4684 101.932 11.4684 101.614C11.4684 101.324 11.3874 101.088 11.2255 100.906C11.0636 100.724 10.8505 100.577 10.5863 100.463C10.3221 100.349 10.0366 100.25 9.72976 100.165L8.6559 99.858C7.97408 99.6619 7.4343 99.3821 7.03658 99.0185C6.63885 98.6548 6.43999 98.179 6.43999 97.5909C6.43999 97.1023 6.57209 96.6761 6.83629 96.3125C7.10334 95.946 7.46129 95.6619 7.91016 95.4602C8.36186 95.2557 8.86612 95.1534 9.42294 95.1534C9.98544 95.1534 10.4854 95.2543 10.9229 95.456C11.3604 95.6548 11.707 95.9276 11.9627 96.2741C12.2212 96.6207 12.3576 97.0142 12.3718 97.4545H11.3491Z" fill="white"/>
<path d="M57.6307 70.767L56.8778 70.9801C56.8305 70.8546 56.7607 70.7327 56.6683 70.6143C56.5784 70.4936 56.4553 70.3942 56.299 70.3161C56.1428 70.2379 55.9427 70.1989 55.6989 70.1989C55.3651 70.1989 55.0869 70.2758 54.8643 70.4297C54.6442 70.5812 54.5341 70.7741 54.5341 71.0085C54.5341 71.2169 54.6098 71.3814 54.7614 71.5021C54.9129 71.6229 55.1496 71.7235 55.4716 71.804L56.2812 72.0028C56.7689 72.1212 57.1323 72.3023 57.3714 72.5462C57.6106 72.7876 57.7301 73.099 57.7301 73.4801C57.7301 73.7926 57.6402 74.072 57.4602 74.3182C57.2827 74.5644 57.0341 74.7585 56.7145 74.9006C56.3949 75.0426 56.0232 75.1136 55.5994 75.1136C55.0431 75.1136 54.5826 74.9929 54.218 74.7514C53.8535 74.5099 53.6226 74.1572 53.5256 73.6932L54.321 73.4943C54.3968 73.7879 54.54 74.008 54.7507 74.1548C54.9638 74.3016 55.242 74.375 55.5852 74.375C55.9759 74.375 56.286 74.2921 56.5156 74.1264C56.7476 73.9583 56.8636 73.7571 56.8636 73.5227C56.8636 73.3333 56.7973 73.1747 56.6648 73.0469C56.5322 72.9167 56.3286 72.8196 56.054 72.7557L55.1449 72.5426C54.6454 72.4242 54.2784 72.2408 54.044 71.9922C53.812 71.7412 53.696 71.4276 53.696 71.0511C53.696 70.7434 53.7824 70.4711 53.9553 70.2344C54.1304 69.9976 54.3684 69.8118 54.669 69.6768C54.9721 69.5419 55.3153 69.4744 55.6989 69.4744C56.2386 69.4744 56.6624 69.5928 56.9702 69.8295C57.2803 70.0663 57.5005 70.3788 57.6307 70.767ZM61.3638 69.5455V70.2557H58.5371V69.5455H61.3638ZM59.361 68.2386H60.199V73.4375C60.199 73.6742 60.2334 73.8518 60.302 73.9702C60.373 74.0862 60.463 74.1643 60.5719 74.2045C60.6832 74.2424 60.8004 74.2614 60.9235 74.2614C61.0158 74.2614 61.0916 74.2566 61.1507 74.2472C61.2099 74.2353 61.2573 74.2259 61.2928 74.2188L61.4632 74.9716C61.4064 74.9929 61.3271 75.0142 61.2253 75.0355C61.1235 75.0592 60.9945 75.071 60.8382 75.071C60.6015 75.071 60.3695 75.0201 60.1422 74.9183C59.9173 74.8165 59.7303 74.6615 59.5811 74.4531C59.4344 74.2448 59.361 73.982 59.361 73.6648V68.2386ZM62.6245 75V69.5455H63.4341V70.3693H63.4909C63.5904 70.0994 63.7703 69.8804 64.0307 69.7124C64.2911 69.5443 64.5847 69.4602 64.9114 69.4602C64.973 69.4602 65.0499 69.4614 65.1422 69.4638C65.2346 69.4661 65.3044 69.4697 65.3517 69.4744V70.3267C65.3233 70.3196 65.2582 70.3089 65.1564 70.2947C65.057 70.2782 64.9516 70.2699 64.8404 70.2699C64.5752 70.2699 64.3385 70.3255 64.1301 70.4368C63.9242 70.5457 63.7608 70.6972 63.6401 70.8913C63.5217 71.0831 63.4625 71.3021 63.4625 71.5483V75H62.6245ZM66.3452 75V69.5455H67.1832V75H66.3452ZM66.7713 68.6364C66.608 68.6364 66.4671 68.5807 66.3487 68.4695C66.2327 68.3582 66.1747 68.2244 66.1747 68.0682C66.1747 67.9119 66.2327 67.7782 66.3487 67.6669C66.4671 67.5556 66.608 67.5 66.7713 67.5C66.9347 67.5 67.0743 67.5556 67.1903 67.6669C67.3087 67.7782 67.3679 67.9119 67.3679 68.0682C67.3679 68.2244 67.3087 68.3582 67.1903 68.4695C67.0743 68.5807 66.9347 68.6364 66.7713 68.6364ZM69.4995 73.0114L69.4853 71.9744H69.6557L72.0421 69.5455H73.079L70.5364 72.1165H70.4654L69.4995 73.0114ZM68.7182 75V67.7273H69.5563V75H68.7182ZM72.1841 75L70.0534 72.3011L70.65 71.7188L73.2495 75H72.1841ZM76.22 75.1136C75.6944 75.1136 75.2411 74.9976 74.8599 74.7656C74.4811 74.5312 74.1887 74.2045 73.9828 73.7855C73.7792 73.3641 73.6774 72.8741 73.6774 72.3153C73.6774 71.7566 73.7792 71.2642 73.9828 70.8381C74.1887 70.4096 74.4752 70.0758 74.8422 69.8366C75.2115 69.5952 75.6423 69.4744 76.1348 69.4744C76.4189 69.4744 76.6994 69.5218 76.9764 69.6165C77.2534 69.7112 77.5055 69.8651 77.7328 70.0781C77.96 70.2888 78.1412 70.5682 78.2761 70.9162C78.411 71.2642 78.4785 71.6927 78.4785 72.2017V72.5568H74.274V71.8324H77.6262C77.6262 71.5246 77.5647 71.25 77.4416 71.0085C77.3208 70.767 77.148 70.5765 76.9231 70.4368C76.7006 70.2971 76.4378 70.2273 76.1348 70.2273C75.801 70.2273 75.5121 70.3101 75.2683 70.4759C75.0268 70.6392 74.841 70.8523 74.7108 71.1151C74.5806 71.3778 74.5154 71.6596 74.5154 71.9602V72.4432C74.5154 72.8551 74.5865 73.2043 74.7285 73.4908C74.8729 73.7749 75.073 73.9915 75.3287 74.1406C75.5843 74.2874 75.8815 74.3608 76.22 74.3608C76.4402 74.3608 76.639 74.33 76.8166 74.2685C76.9965 74.2045 77.1516 74.1098 77.2818 73.9844C77.412 73.8565 77.5126 73.6979 77.5836 73.5085L78.3933 73.7358C78.3081 74.0104 78.1648 74.2519 77.9636 74.4602C77.7624 74.6662 77.5138 74.8272 77.2179 74.9432C76.9219 75.0568 76.5893 75.1136 76.22 75.1136ZM53.767 89.0455V81.5455H54.5767V82.4119H54.6761C54.7377 82.3172 54.8229 82.1965 54.9318 82.0497C55.0431 81.9006 55.2017 81.768 55.4077 81.652C55.616 81.5336 55.8977 81.4744 56.2528 81.4744C56.7121 81.4744 57.117 81.5893 57.4673 81.8189C57.8177 82.0485 58.0911 82.3741 58.2876 82.7955C58.4841 83.2169 58.5824 83.714 58.5824 84.2869C58.5824 84.8646 58.4841 85.3653 58.2876 85.7891C58.0911 86.2105 57.8189 86.5372 57.4709 86.7692C57.1229 86.9988 56.7216 87.1136 56.267 87.1136C55.9167 87.1136 55.6361 87.0556 55.4254 86.9396C55.2147 86.8213 55.0526 86.6875 54.9389 86.5384C54.8253 86.3868 54.7377 86.2614 54.6761 86.1619H54.6051V89.0455H53.767ZM54.5909 84.2727C54.5909 84.6847 54.6513 85.0481 54.772 85.3629C54.8928 85.6754 55.0691 85.9205 55.3011 86.098C55.5331 86.2732 55.8172 86.3608 56.1534 86.3608C56.5038 86.3608 56.7962 86.2685 57.0305 86.0838C57.2673 85.8968 57.4448 85.6458 57.5632 85.331C57.6839 85.0137 57.7443 84.661 57.7443 84.2727C57.7443 83.8892 57.6851 83.5436 57.5668 83.2358C57.4508 82.9257 57.2744 82.6806 57.0376 82.5007C56.8033 82.3184 56.5085 82.2273 56.1534 82.2273C55.8125 82.2273 55.526 82.3137 55.294 82.4865C55.062 82.657 54.8868 82.8961 54.7685 83.2038C54.6501 83.5092 54.5909 83.8655 54.5909 84.2727ZM59.8608 87V81.5455H60.6705V82.3693H60.7273C60.8267 82.0994 61.0066 81.8804 61.267 81.7124C61.5275 81.5443 61.821 81.4602 62.1477 81.4602C62.2093 81.4602 62.2862 81.4614 62.3786 81.4638C62.4709 81.4661 62.5407 81.4697 62.5881 81.4744V82.3267C62.5597 82.3196 62.4946 82.3089 62.3928 82.2947C62.2933 82.2782 62.188 82.2699 62.0767 82.2699C61.8116 82.2699 61.5748 82.3255 61.3665 82.4368C61.1605 82.5457 60.9972 82.6972 60.8764 82.8913C60.758 83.0831 60.6989 83.3021 60.6989 83.5483V87H59.8608ZM63.5815 87V81.5455H64.4196V87H63.5815ZM64.0076 80.6364C63.8443 80.6364 63.7034 80.5807 63.585 80.4695C63.469 80.3582 63.411 80.2244 63.411 80.0682C63.411 79.9119 63.469 79.7782 63.585 79.6669C63.7034 79.5556 63.8443 79.5 64.0076 79.5C64.171 79.5 64.3107 79.5556 64.4267 79.6669C64.545 79.7782 64.6042 79.9119 64.6042 80.0682C64.6042 80.2244 64.545 80.3582 64.4267 80.4695C64.3107 80.5807 64.171 80.6364 64.0076 80.6364ZM68.1705 87.1136C67.6591 87.1136 67.2188 86.9929 66.8494 86.7514C66.4801 86.5099 66.196 86.1773 65.9972 85.7536C65.7983 85.3298 65.6989 84.8456 65.6989 84.3011C65.6989 83.7472 65.8007 83.2583 66.0043 82.8345C66.2102 82.4084 66.4967 82.0758 66.8636 81.8366C67.233 81.5952 67.6638 81.4744 68.1562 81.4744C68.5398 81.4744 68.8854 81.5455 69.1932 81.6875C69.5009 81.8295 69.7531 82.0284 69.9496 82.2841C70.1461 82.5398 70.268 82.8381 70.3153 83.179H69.4773C69.4134 82.9304 69.2713 82.7102 69.0511 82.5185C68.8333 82.3243 68.5398 82.2273 68.1705 82.2273C67.8438 82.2273 67.5573 82.3125 67.3111 82.483C67.0672 82.651 66.8767 82.889 66.7393 83.1967C66.6044 83.5021 66.5369 83.8608 66.5369 84.2727C66.5369 84.6941 66.6032 85.0611 66.7358 85.3736C66.8707 85.6861 67.0601 85.9287 67.304 86.1016C67.5502 86.2744 67.839 86.3608 68.1705 86.3608C68.3883 86.3608 68.5859 86.3229 68.7635 86.2472C68.9411 86.1714 69.0914 86.0625 69.2145 85.9205C69.3376 85.7784 69.4252 85.608 69.4773 85.4091H70.3153C70.268 85.7311 70.1508 86.0211 69.9638 86.2791C69.7791 86.5348 69.5341 86.7384 69.2287 86.8899C68.9257 87.0391 68.5729 87.1136 68.1705 87.1136ZM73.8274 87.1136C73.3018 87.1136 72.8485 86.9976 72.4673 86.7656C72.0885 86.5312 71.7962 86.2045 71.5902 85.7855C71.3866 85.3641 71.2848 84.8741 71.2848 84.3153C71.2848 83.7566 71.3866 83.2642 71.5902 82.8381C71.7962 82.4096 72.0826 82.0758 72.4496 81.8366C72.8189 81.5952 73.2498 81.4744 73.7422 81.4744C74.0263 81.4744 74.3068 81.5218 74.5838 81.6165C74.8608 81.7112 75.1129 81.8651 75.3402 82.0781C75.5675 82.2888 75.7486 82.5682 75.8835 82.9162C76.0185 83.2642 76.0859 83.6927 76.0859 84.2017V84.5568H71.8814V83.8324H75.2337C75.2337 83.5246 75.1721 83.25 75.049 83.0085C74.9283 82.767 74.7554 82.5765 74.5305 82.4368C74.308 82.2971 74.0452 82.2273 73.7422 82.2273C73.4084 82.2273 73.1196 82.3101 72.8757 82.4759C72.6342 82.6392 72.4484 82.8523 72.3182 83.1151C72.188 83.3778 72.1229 83.6596 72.1229 83.9602V84.4432C72.1229 84.8551 72.1939 85.2043 72.3359 85.4908C72.4804 85.7749 72.6804 85.9915 72.9361 86.1406C73.1918 86.2874 73.4889 86.3608 73.8274 86.3608C74.0476 86.3608 74.2464 86.33 74.424 86.2685C74.6039 86.2045 74.759 86.1098 74.8892 85.9844C75.0194 85.8565 75.12 85.6979 75.1911 85.5085L76.0007 85.7358C75.9155 86.0104 75.7723 86.2519 75.571 86.4602C75.3698 86.6662 75.1212 86.8272 74.8253 86.9432C74.5294 87.0568 74.1967 87.1136 73.8274 87.1136Z" fill="white"/>
<line x1="63" y1="21" x2="113" y2="21" stroke="#2BC48A" stroke-width="4"/>
</g>
<defs>
<clipPath id="clip0_5_14">
<rect width="120" height="107" fill="white"/>
</clipPath>
</defs>
</svg>
